<?xml version="1.0" encoding="UTF-8"?>
<svg id="Layer_2" data-name="Layer 2" xmlns="http://www.w3.org/2000/svg" viewBox="0 0 216 115">
  <g id="Layer_1-2" data-name="Layer 1">
    <g>
      <polygon points="146.37 66 124.14 87 117.48 66 97 66 82 108 98.86 108 108.5 77.36 115 98 127 98 146 79 134.7 108 151.65 108 165.82 66 146.37 66"/>
      <path d="M203,85s13,0,13-9-11-10-16.84-10h-31.16l-14.68,42s27.51.22,36.68,0c6.6-.16,22.71-1.64,24.01-12,1-8-11-11-11-11ZM188,100h-15l4-10h13c1.99,0,7,1,7,5s-4.98,5-9,5ZM190.28,82h-11.28l3-9h10c5,0,7,1,6.95,4-.03,2-2.95,5-8.67,5Z"/>
      <path d="M68,56C29,81,0,115,0,115,55.91,80.24,114.67,46.16,174,11c0,0-52.99,11.02-106,45Z"/>
      <path d="M67.53,37.29c.04.25.39.25.44,0,1.47-8.18,4.3-14.64,7.85-17.84.1-.09.1-.23,0-.31-3.74-3.37-6.68-10.33-8.07-19.13-1.39,8.79-4.34,15.77-8.07,19.13-.1.09-.1.23,0,.31,3.56,3.21,6.39,9.65,7.85,17.84Z"/>
    </g>
  </g>
</svg>